G04*
G04 #@! TF.GenerationSoftware,Altium Limited,Altium Designer,20.2.5 (213)*
G04*
G04 Layer_Physical_Order=1*
G04 Layer_Color=255*
%FSLAX42Y42*%
%MOMM*%
G71*
G04*
G04 #@! TF.SameCoordinates,5B17B380-CB23-49DD-974E-BA9C208B7A42*
G04*
G04*
G04 #@! TF.FilePolarity,Positive*
G04*
G01*
G75*
%ADD12C,0.25*%
%ADD16O,1.90X0.60*%
%ADD17R,1.02X1.40*%
%ADD18R,1.53X0.65*%
%ADD19R,1.00X1.27*%
%ADD20O,1.00X1.27*%
%ADD29C,0.51*%
%ADD30C,0.64*%
%ADD31C,1.35*%
%ADD32R,1.35X1.35*%
%ADD33C,0.71*%
D12*
X2540Y3061D02*
X5397D01*
Y5359D01*
X2540D02*
X5397D01*
X2540Y3061D02*
Y5359D01*
D16*
X3575Y3531D02*
D03*
Y3404D02*
D03*
Y3277D02*
D03*
Y3150D02*
D03*
X4045Y3531D02*
D03*
Y3404D02*
D03*
Y3277D02*
D03*
Y3150D02*
D03*
D17*
X3442Y5055D02*
D03*
X3251D02*
D03*
X4762Y5042D02*
D03*
X4572D02*
D03*
X3619Y4318D02*
D03*
X3429D02*
D03*
X3619Y4582D02*
D03*
X3429D02*
D03*
X4128Y4775D02*
D03*
X4318D02*
D03*
X4128Y5042D02*
D03*
X4318D02*
D03*
X4254Y3810D02*
D03*
X4064D02*
D03*
D18*
X3920Y4042D02*
D03*
Y4169D02*
D03*
Y4296D02*
D03*
Y4423D02*
D03*
X4462D02*
D03*
Y4296D02*
D03*
Y4169D02*
D03*
Y4042D02*
D03*
D19*
X3899Y4839D02*
D03*
Y5069D02*
D03*
D20*
X3696Y4839D02*
D03*
Y5069D02*
D03*
D29*
X3613Y3150D02*
X3785D01*
X3277Y4178D02*
X3594D01*
X3061D02*
X3277D01*
X3251Y4902D02*
Y5055D01*
Y4902D02*
X3289Y4864D01*
X3696Y4677D02*
Y4839D01*
X3619Y4582D02*
Y4601D01*
X3696Y4677D01*
X4506Y4423D02*
X4623Y4540D01*
Y4546D01*
X4572Y4597D02*
Y5042D01*
Y4597D02*
X4623Y4546D01*
X4305Y4762D02*
X4318Y4775D01*
X4305Y4648D02*
Y4762D01*
X4216Y4559D02*
X4305Y4648D01*
Y4483D02*
X4470Y4648D01*
X4305Y4343D02*
Y4483D01*
X4470Y4648D02*
Y4870D01*
X4318Y5023D02*
Y5042D01*
Y5023D02*
X4470Y4870D01*
X4102Y4775D02*
X4128D01*
X3962D02*
X4102D01*
X3899Y4825D02*
Y4839D01*
Y4825D02*
X3924Y4801D01*
X3937D01*
X3962Y4775D01*
X4026Y5042D02*
X4128D01*
X3899Y5069D02*
X3999D01*
X4026Y5042D01*
X4762D02*
X5004D01*
X5000Y5046D02*
X5004Y5042D01*
X5000Y5046D02*
Y5147D01*
X4915Y5232D02*
X5000Y5147D01*
X3696Y5182D02*
X3747Y5232D01*
X4915D01*
X3696Y5069D02*
Y5182D01*
X3442Y5055D02*
X3449Y5062D01*
X3688D01*
X3696Y5069D01*
Y4839D02*
Y5069D01*
X3769Y4296D02*
X3920D01*
X3365Y3277D02*
X3577D01*
X3353Y3289D02*
X3365Y3277D01*
X3376Y3405D02*
X3589D01*
X3365Y3416D02*
X3376Y3405D01*
X3420Y3579D02*
X3467Y3532D01*
X3585D01*
X3416Y3619D02*
X3420Y3616D01*
Y3579D02*
Y3616D01*
X4045Y3531D02*
X4047D01*
X4051Y3535D01*
Y3594D01*
X4053Y3150D02*
X4293D01*
X5182Y3277D02*
X5220Y3238D01*
X4039Y3277D02*
X5182D01*
X4813Y3404D02*
X4902Y3492D01*
X4030Y3404D02*
X4813D01*
X3289Y4001D02*
X3594D01*
X2705D02*
X3289D01*
X3378Y3810D02*
X3920D01*
X3619Y4318D02*
X3632Y4305D01*
X3150Y4318D02*
X3429D01*
X2705Y3747D02*
X3315D01*
X3378Y3810D01*
X3594Y4178D02*
X3632Y4216D01*
Y4305D01*
X3594Y4001D02*
X3762Y4169D01*
X2984Y4254D02*
X3061Y4178D01*
X3143Y4566D02*
X3251Y4458D01*
X2946Y4762D02*
X3143Y4566D01*
X3188Y4610D02*
X3238D01*
X3143Y4566D02*
X3188Y4610D01*
X4459Y4166D02*
X4462Y4169D01*
X4216Y4254D02*
X4305Y4166D01*
X4459D01*
X4216Y4254D02*
Y4559D01*
X4455Y4303D02*
X4462Y4296D01*
X4346Y4303D02*
X4455D01*
X4305Y4343D02*
X4346Y4303D01*
X3899Y5069D02*
X3912Y5082D01*
X4462Y3840D02*
Y4042D01*
X4432Y3810D02*
X4462Y3840D01*
X4254Y3810D02*
X4432D01*
X3920D02*
Y4042D01*
Y3726D02*
Y3810D01*
X4064D01*
X3920Y3726D02*
X4051Y3594D01*
X3762Y4169D02*
X3920D01*
X3632Y4305D02*
X3759D01*
X3769Y4296D01*
X2705Y4254D02*
X2984D01*
X2705Y4508D02*
X2718Y4496D01*
X2972D01*
X3150Y4318D01*
X3416Y4458D02*
X3759D01*
X3251D02*
X3416D01*
Y4569D02*
X3429Y4582D01*
X3416Y4458D02*
Y4569D01*
X2705Y4762D02*
X2946D01*
X3794Y4423D02*
X3920D01*
X3759Y4458D02*
X3794Y4423D01*
X4101Y4776D02*
X4102Y4775D01*
X4902Y3492D02*
X5220D01*
X5207Y4013D02*
X5220Y4001D01*
X4978Y4013D02*
X5207D01*
X4462Y4042D02*
X4950D01*
X4978Y4013D01*
X4623Y4540D02*
X4858Y4775D01*
X5207D02*
X5220Y4762D01*
X4858Y4775D02*
X5207D01*
X4462Y4423D02*
X4506D01*
X5207Y4496D02*
X5220Y4508D01*
X4978Y4496D02*
X5207D01*
X4462Y4296D02*
X4778D01*
X4978Y4496D01*
X4928Y4254D02*
X5220D01*
X4462Y4169D02*
X4842D01*
X4928Y4254D01*
D30*
X2705Y3492D02*
Y3747D01*
Y3238D02*
Y3492D01*
D31*
X5220Y4762D02*
D03*
Y4508D02*
D03*
Y4001D02*
D03*
Y4254D02*
D03*
Y3492D02*
D03*
Y3747D02*
D03*
X2705D02*
D03*
Y3492D02*
D03*
Y4254D02*
D03*
Y4001D02*
D03*
Y4508D02*
D03*
Y4762D02*
D03*
D32*
X5220Y3238D02*
D03*
X2705D02*
D03*
D33*
X3785Y3150D02*
D03*
X3289Y4864D02*
D03*
X3277Y4178D02*
D03*
X5004Y5042D02*
D03*
X3353Y3289D02*
D03*
X3365Y3416D02*
D03*
X4293Y3150D02*
D03*
X4621Y4542D02*
D03*
X3416Y3619D02*
D03*
X3289Y4001D02*
D03*
X3238Y4610D02*
D03*
M02*
