G04*
G04 #@! TF.GenerationSoftware,Altium Limited,Altium Designer,20.2.5 (213)*
G04*
G04 Layer_Color=65535*
%FSLAX42Y42*%
%MOMM*%
G71*
G04*
G04 #@! TF.SameCoordinates,5B17B380-CB23-49DD-974E-BA9C208B7A42*
G04*
G04*
G04 #@! TF.FilePolarity,Positive*
G04*
G01*
G75*
%ADD10C,0.25*%
%ADD11C,0.20*%
%ADD12C,0.25*%
%ADD13C,0.12*%
%ADD14C,0.20*%
%ADD15C,0.18*%
D10*
X3871Y3139D02*
G03*
X3871Y3139I-12J0D01*
G01*
D11*
X3710Y3590D02*
X3910D01*
X3710Y3090D02*
X3910D01*
X3710D02*
Y3590D01*
X3910Y3090D02*
Y3590D01*
X4386Y3974D02*
X4538D01*
X4351Y3987D02*
Y4477D01*
X4031D02*
X4351D01*
X4031Y3987D02*
Y4477D01*
Y3987D02*
X4351D01*
D12*
X3162Y5161D02*
X3531D01*
X3162Y4948D02*
X3531D01*
X3162D02*
Y5161D01*
X3531Y4948D02*
Y5161D01*
X5093Y3111D02*
X5347D01*
X5093D02*
Y4890D01*
X5347D01*
Y3111D02*
Y4890D01*
X2832Y3111D02*
Y4890D01*
X2578D02*
X2832D01*
X2578Y3111D02*
Y4890D01*
Y3111D02*
X2832D01*
X4483Y5149D02*
X4851D01*
X4483Y4935D02*
X4851D01*
X4483D02*
Y5149D01*
X4851Y4935D02*
Y5149D01*
X3340Y4425D02*
X3708D01*
X3340Y4211D02*
X3708D01*
X3340D02*
Y4425D01*
X3708Y4211D02*
Y4425D01*
X3340Y4689D02*
X3708D01*
X3340Y4476D02*
X3708D01*
X3340D02*
Y4689D01*
X3708Y4476D02*
Y4689D01*
X4039Y4669D02*
X4407D01*
X4039Y4882D02*
X4407D01*
Y4669D02*
Y4882D01*
X4039Y4669D02*
Y4882D01*
Y4935D02*
X4407D01*
X4039Y5149D02*
X4407D01*
Y4935D02*
Y5149D01*
X4039Y4935D02*
Y5149D01*
X3975Y3917D02*
X4343D01*
X3975Y3703D02*
X4343D01*
X3975D02*
Y3917D01*
X4343Y3703D02*
Y3917D01*
X2540Y3061D02*
X5397D01*
Y5359D01*
X2540D02*
X5397D01*
X2540Y3061D02*
Y5359D01*
D13*
X3609Y4742D02*
Y4935D01*
X3990Y4742D02*
Y4935D01*
X3609D02*
X3990D01*
X3609Y4742D02*
X3990D01*
X3609Y4973D02*
Y5166D01*
X3990Y4973D02*
Y5166D01*
X3609D02*
X3990D01*
X3609Y4973D02*
X3990D01*
D14*
X4745Y4719D02*
Y4834D01*
X4802D01*
X4821Y4815D01*
Y4776D01*
X4802Y4757D01*
X4745D01*
X4859Y4719D02*
Y4795D01*
X4897Y4834D01*
X4935Y4795D01*
Y4719D01*
Y4776D01*
X4859D01*
X4973Y4719D02*
X5011D01*
X4992D01*
Y4834D01*
X4973Y4815D01*
X4719Y4453D02*
Y4567D01*
X4776D01*
X4795Y4548D01*
Y4510D01*
X4776Y4491D01*
X4719D01*
X4834Y4453D02*
Y4529D01*
X4872Y4567D01*
X4910Y4529D01*
Y4453D01*
Y4510D01*
X4834D01*
X4948Y4567D02*
X5024D01*
Y4548D01*
X4948Y4472D01*
Y4453D01*
X4719Y4199D02*
Y4313D01*
X4776D01*
X4795Y4294D01*
Y4256D01*
X4776Y4237D01*
X4719D01*
X4834Y4199D02*
Y4275D01*
X4872Y4313D01*
X4910Y4275D01*
Y4199D01*
Y4256D01*
X4834D01*
X5024Y4313D02*
X4986Y4294D01*
X4948Y4256D01*
Y4218D01*
X4967Y4199D01*
X5005D01*
X5024Y4218D01*
Y4237D01*
X5005Y4256D01*
X4948D01*
X4719Y4072D02*
Y3995D01*
X4757Y3957D01*
X4795Y3995D01*
Y4072D01*
X4910Y4033D02*
X4853D01*
X4834Y4014D01*
Y3976D01*
X4853Y3957D01*
X4910D01*
X5024Y4033D02*
X4967D01*
X4948Y4014D01*
Y3976D01*
X4967Y3957D01*
X5024D01*
X4656Y3805D02*
Y3729D01*
X4694Y3691D01*
X4732Y3729D01*
Y3805D01*
X4789Y3691D02*
X4827D01*
X4846Y3710D01*
Y3748D01*
X4827Y3767D01*
X4789D01*
X4770Y3748D01*
Y3710D01*
X4789Y3691D01*
X4884Y3767D02*
Y3710D01*
X4903Y3691D01*
X4961D01*
Y3767D01*
X5018Y3786D02*
Y3767D01*
X4999D01*
X5037D01*
X5018D01*
Y3710D01*
X5037Y3691D01*
X4751Y3513D02*
X4789D01*
X4808Y3494D01*
Y3437D01*
X4751D01*
X4732Y3456D01*
X4751Y3475D01*
X4808D01*
X4846Y3437D02*
Y3513D01*
X4903D01*
X4922Y3494D01*
Y3437D01*
X5037D02*
X4961D01*
X5037Y3513D01*
Y3532D01*
X5018Y3551D01*
X4980D01*
X4961Y3532D01*
X4776Y3259D02*
X4815D01*
X4834Y3240D01*
Y3183D01*
X4776D01*
X4757Y3202D01*
X4776Y3221D01*
X4834D01*
X4872Y3183D02*
Y3259D01*
X4929D01*
X4948Y3240D01*
Y3183D01*
X4986D02*
X5024D01*
X5005D01*
Y3297D01*
X4986Y3278D01*
X2903Y4440D02*
Y4554D01*
X2960D01*
X2979Y4535D01*
Y4497D01*
X2960Y4478D01*
X2903D01*
X3037Y4573D02*
Y4554D01*
X3017D01*
X3056D01*
X3037D01*
Y4497D01*
X3056Y4478D01*
X3113Y4554D02*
X3189Y4478D01*
X3151Y4516D01*
X3189Y4554D01*
X3113Y4478D01*
X2903Y4707D02*
Y4821D01*
X2960D01*
X2979Y4802D01*
Y4764D01*
X2960Y4745D01*
X2903D01*
X3017Y4707D02*
Y4783D01*
X3056Y4821D01*
X3094Y4783D01*
Y4707D01*
Y4764D01*
X3017D01*
X3208Y4707D02*
X3132D01*
X3208Y4783D01*
Y4802D01*
X3189Y4821D01*
X3151D01*
X3132Y4802D01*
X2903Y4199D02*
Y4313D01*
X2960D01*
X2979Y4294D01*
Y4256D01*
X2960Y4237D01*
X2903D01*
X3017Y4199D02*
Y4275D01*
X3056Y4313D01*
X3094Y4275D01*
Y4199D01*
Y4256D01*
X3017D01*
X3132Y4294D02*
X3151Y4313D01*
X3189D01*
X3208Y4294D01*
Y4218D01*
X3189Y4199D01*
X3151D01*
X3132Y4218D01*
Y4294D01*
X2903Y3957D02*
Y4072D01*
X2960D01*
X2979Y4053D01*
Y4014D01*
X2960Y3995D01*
X2903D01*
X3017Y3957D02*
Y4033D01*
X3056Y4072D01*
X3094Y4033D01*
Y3957D01*
Y4014D01*
X3017D01*
X3132Y4053D02*
X3151Y4072D01*
X3189D01*
X3208Y4053D01*
Y4033D01*
X3189Y4014D01*
X3170D01*
X3189D01*
X3208Y3995D01*
Y3976D01*
X3189Y3957D01*
X3151D01*
X3132Y3976D01*
X2941Y3691D02*
X2960D01*
X2979Y3710D01*
Y3805D01*
X2922D01*
X2903Y3786D01*
Y3748D01*
X2922Y3729D01*
X2979D01*
X3017D02*
Y3805D01*
X3075D01*
X3094Y3786D01*
Y3729D01*
X3208Y3843D02*
Y3729D01*
X3151D01*
X3132Y3748D01*
Y3786D01*
X3151Y3805D01*
X3208D01*
X2941Y3424D02*
X2960D01*
X2979Y3443D01*
Y3538D01*
X2922D01*
X2903Y3519D01*
Y3481D01*
X2922Y3462D01*
X2979D01*
X3017D02*
Y3538D01*
X3075D01*
X3094Y3519D01*
Y3462D01*
X3208Y3576D02*
Y3462D01*
X3151D01*
X3132Y3481D01*
Y3519D01*
X3151Y3538D01*
X3208D01*
X2941Y3145D02*
X2960D01*
X2979Y3164D01*
Y3259D01*
X2922D01*
X2903Y3240D01*
Y3202D01*
X2922Y3183D01*
X2979D01*
X3017D02*
Y3259D01*
X3075D01*
X3094Y3240D01*
Y3183D01*
X3208Y3297D02*
Y3183D01*
X3151D01*
X3132Y3202D01*
Y3240D01*
X3151Y3259D01*
X3208D01*
D15*
X2620Y5067D02*
Y4966D01*
Y5000D01*
X2688Y5067D01*
X2637Y5017D01*
X2688Y4966D01*
X2790D02*
X2722D01*
X2790Y5033D01*
Y5050D01*
X2773Y5067D01*
X2739D01*
X2722Y5050D01*
X3526Y3734D02*
Y3649D01*
X3543Y3632D01*
X3577D01*
X3594Y3649D01*
Y3734D01*
X3628Y3632D02*
X3662D01*
X3645D01*
Y3734D01*
X3628Y3717D01*
X3433Y4051D02*
Y4153D01*
X3484D01*
X3501Y4136D01*
Y4102D01*
X3484Y4085D01*
X3433D01*
X3467D02*
X3501Y4051D01*
X3603Y4153D02*
X3569Y4136D01*
X3535Y4102D01*
Y4068D01*
X3552Y4051D01*
X3586D01*
X3603Y4068D01*
Y4085D01*
X3586Y4102D01*
X3535D01*
X4132Y5207D02*
Y5309D01*
X4183D01*
X4199Y5292D01*
Y5258D01*
X4183Y5241D01*
X4132D01*
X4166D02*
X4199Y5207D01*
X4301Y5309D02*
X4233D01*
Y5258D01*
X4267Y5275D01*
X4284D01*
X4301Y5258D01*
Y5224D01*
X4284Y5207D01*
X4250D01*
X4233Y5224D01*
X4462Y4722D02*
Y4823D01*
X4513D01*
X4530Y4807D01*
Y4773D01*
X4513Y4756D01*
X4462D01*
X4496D02*
X4530Y4722D01*
X4614D02*
Y4823D01*
X4564Y4773D01*
X4631D01*
X4551Y5207D02*
Y5309D01*
X4602D01*
X4619Y5292D01*
Y5258D01*
X4602Y5241D01*
X4551D01*
X4585D02*
X4619Y5207D01*
X4652Y5292D02*
X4669Y5309D01*
X4703D01*
X4720Y5292D01*
Y5275D01*
X4703Y5258D01*
X4686D01*
X4703D01*
X4720Y5241D01*
Y5224D01*
X4703Y5207D01*
X4669D01*
X4652Y5224D01*
X3776Y4521D02*
Y4623D01*
X3827D01*
X3844Y4606D01*
Y4572D01*
X3827Y4555D01*
X3776D01*
X3810D02*
X3844Y4521D01*
X3945D02*
X3878D01*
X3945Y4589D01*
Y4606D01*
X3929Y4623D01*
X3895D01*
X3878Y4606D01*
X3260Y5220D02*
Y5321D01*
X3310D01*
X3327Y5304D01*
Y5271D01*
X3310Y5254D01*
X3260D01*
X3294D02*
X3327Y5220D01*
X3361D02*
X3395D01*
X3378D01*
Y5321D01*
X3361Y5304D01*
X5152Y5067D02*
Y4966D01*
Y5000D01*
X5220Y5067D01*
X5169Y5017D01*
X5220Y4966D01*
X5254D02*
X5287D01*
X5270D01*
Y5067D01*
X5254Y5050D01*
X3598Y3950D02*
X3632D01*
X3615D01*
Y3848D01*
X3598D01*
X3632D01*
X3751Y3933D02*
X3734Y3950D01*
X3700D01*
X3683Y3933D01*
Y3865D01*
X3700Y3848D01*
X3734D01*
X3751Y3865D01*
X3785Y3848D02*
X3818D01*
X3802D01*
Y3950D01*
X3785Y3933D01*
X3725Y5309D02*
Y5207D01*
X3776D01*
X3793Y5224D01*
Y5292D01*
X3776Y5309D01*
X3725D01*
X3895Y5207D02*
X3827D01*
X3895Y5275D01*
Y5292D01*
X3878Y5309D01*
X3844D01*
X3827Y5292D01*
X3421Y4864D02*
Y4763D01*
X3471D01*
X3488Y4779D01*
Y4847D01*
X3471Y4864D01*
X3421D01*
X3522Y4763D02*
X3556D01*
X3539D01*
Y4864D01*
X3522Y4847D01*
X4470Y3844D02*
X4453Y3861D01*
X4420D01*
X4403Y3844D01*
Y3776D01*
X4420Y3759D01*
X4453D01*
X4470Y3776D01*
X4504Y3759D02*
X4538D01*
X4521D01*
Y3861D01*
X4504Y3844D01*
M02*
