M48
;Layer_Color=9474304
;FILE_FORMAT=4:2
METRIC,LZ
;TYPE=PLATED
T1F00S00C0.41
T2F00S00C0.90
%
T01
X003353Y003289
X003365Y003416
X003416Y003619
X003785Y00315
X004293
X004621Y004542
X005004Y005042
X003289Y004864
X003238Y00461
X003277Y004178
X003289Y004001
T02
X002705Y003238
Y003492
Y003747
X00522
Y003492
Y003238
Y004001
Y004254
Y004508
Y004762
X002705
Y004508
Y004254
Y004001
M30
