G04*
G04 #@! TF.GenerationSoftware,Altium Limited,Altium Designer,20.2.5 (213)*
G04*
G04 Layer_Color=8388736*
%FSLAX42Y42*%
%MOMM*%
G71*
G04*
G04 #@! TF.SameCoordinates,5B17B380-CB23-49DD-974E-BA9C208B7A42*
G04*
G04*
G04 #@! TF.FilePolarity,Negative*
G04*
G01*
G75*
%ADD12C,0.25*%
%ADD21O,2.10X0.80*%
%ADD22R,1.22X1.60*%
%ADD23R,1.73X0.85*%
%ADD24R,1.20X1.47*%
%ADD25O,1.20X1.47*%
%ADD26C,1.55*%
%ADD27R,1.55X1.55*%
%ADD28C,0.91*%
D12*
X2540Y3061D02*
X5397D01*
Y5359D01*
X2540D02*
X5397D01*
X2540Y3061D02*
Y5359D01*
D21*
X3575Y3531D02*
D03*
Y3404D02*
D03*
Y3277D02*
D03*
Y3150D02*
D03*
X4045Y3531D02*
D03*
Y3404D02*
D03*
Y3277D02*
D03*
Y3150D02*
D03*
D22*
X3442Y5055D02*
D03*
X3251D02*
D03*
X4762Y5042D02*
D03*
X4572D02*
D03*
X3619Y4318D02*
D03*
X3429D02*
D03*
X3619Y4582D02*
D03*
X3429D02*
D03*
X4128Y4775D02*
D03*
X4318D02*
D03*
X4128Y5042D02*
D03*
X4318D02*
D03*
X4254Y3810D02*
D03*
X4064D02*
D03*
D23*
X3920Y4042D02*
D03*
Y4169D02*
D03*
Y4296D02*
D03*
Y4423D02*
D03*
X4462D02*
D03*
Y4296D02*
D03*
Y4169D02*
D03*
Y4042D02*
D03*
D24*
X3899Y4839D02*
D03*
Y5069D02*
D03*
D25*
X3696Y4839D02*
D03*
Y5069D02*
D03*
D26*
X5220Y4762D02*
D03*
Y4508D02*
D03*
Y4001D02*
D03*
Y4254D02*
D03*
Y3492D02*
D03*
Y3747D02*
D03*
X2705D02*
D03*
Y3492D02*
D03*
Y4254D02*
D03*
Y4001D02*
D03*
Y4508D02*
D03*
Y4762D02*
D03*
D27*
X5220Y3238D02*
D03*
X2705D02*
D03*
D28*
X3785Y3150D02*
D03*
X3289Y4864D02*
D03*
X3277Y4178D02*
D03*
X5004Y5042D02*
D03*
X3353Y3289D02*
D03*
X3365Y3416D02*
D03*
X4293Y3150D02*
D03*
X4621Y4542D02*
D03*
X3416Y3619D02*
D03*
X3289Y4001D02*
D03*
X3238Y4610D02*
D03*
M02*
