G04*
G04 #@! TF.GenerationSoftware,Altium Limited,Altium Designer,20.2.5 (213)*
G04*
G04 Layer_Physical_Order=2*
G04 Layer_Color=16711680*
%FSLAX42Y42*%
%MOMM*%
G71*
G04*
G04 #@! TF.SameCoordinates,5B17B380-CB23-49DD-974E-BA9C208B7A42*
G04*
G04*
G04 #@! TF.FilePolarity,Positive*
G04*
G01*
G75*
%ADD12C,0.25*%
%ADD29C,0.51*%
%ADD31C,1.35*%
%ADD32R,1.35X1.35*%
%ADD33C,0.71*%
D12*
X2540Y3061D02*
X5397D01*
Y5359D01*
X2540D02*
X5397D01*
X2540Y3061D02*
Y5359D01*
D29*
X3785Y3150D02*
X4001D01*
X3124Y4699D02*
X3289Y4864D01*
X3124Y4331D02*
Y4699D01*
Y4331D02*
X3277Y4178D01*
X4928Y4077D02*
X5004Y4153D01*
X4001Y3150D02*
X4928Y4077D01*
X5004Y4001D02*
X5220D01*
X4928Y4077D02*
X5004Y4001D01*
Y4153D02*
Y5042D01*
X3213Y3429D02*
X3353Y3289D01*
X3213Y3919D02*
X3289Y3995D01*
X3213Y3429D02*
Y3919D01*
X3315Y3467D02*
X3365Y3416D01*
X3315Y3467D02*
Y3861D01*
X3391Y3937D01*
X4293Y3150D02*
X4458D01*
X5055Y3747D01*
X4621Y4405D02*
Y4542D01*
X3835Y3619D02*
X4621Y4405D01*
X3416Y3619D02*
X3835D01*
X3391Y3937D02*
Y4458D01*
X3289Y3995D02*
Y4001D01*
X3238Y4610D02*
X3391Y4458D01*
X5055Y3747D02*
X5220D01*
D31*
Y4762D02*
D03*
Y4508D02*
D03*
Y4001D02*
D03*
Y4254D02*
D03*
Y3492D02*
D03*
Y3747D02*
D03*
X2705D02*
D03*
Y3492D02*
D03*
Y4254D02*
D03*
Y4001D02*
D03*
Y4508D02*
D03*
Y4762D02*
D03*
D32*
X5220Y3238D02*
D03*
X2705D02*
D03*
D33*
X3785Y3150D02*
D03*
X3289Y4864D02*
D03*
X3277Y4178D02*
D03*
X5004Y5042D02*
D03*
X3353Y3289D02*
D03*
X3365Y3416D02*
D03*
X4293Y3150D02*
D03*
X4621Y4542D02*
D03*
X3416Y3619D02*
D03*
X3289Y4001D02*
D03*
X3238Y4610D02*
D03*
M02*
