G04*
G04 #@! TF.GenerationSoftware,Altium Limited,Altium Designer,20.2.5 (213)*
G04*
G04 Layer_Color=8421504*
%FSLAX42Y42*%
%MOMM*%
G71*
G04*
G04 #@! TF.SameCoordinates,5B17B380-CB23-49DD-974E-BA9C208B7A42*
G04*
G04*
G04 #@! TF.FilePolarity,Positive*
G04*
G01*
G75*
%ADD12C,0.25*%
%ADD16O,1.90X0.60*%
%ADD17R,1.02X1.40*%
%ADD18R,1.53X0.65*%
%ADD19R,1.00X1.27*%
%ADD20O,1.00X1.27*%
D12*
X2540Y3061D02*
X5397D01*
Y5359D01*
X2540D02*
X5397D01*
X2540Y3061D02*
Y5359D01*
D16*
X3575Y3531D02*
D03*
Y3404D02*
D03*
Y3277D02*
D03*
Y3150D02*
D03*
X4045Y3531D02*
D03*
Y3404D02*
D03*
Y3277D02*
D03*
Y3150D02*
D03*
D17*
X3442Y5055D02*
D03*
X3251D02*
D03*
X4762Y5042D02*
D03*
X4572D02*
D03*
X3619Y4318D02*
D03*
X3429D02*
D03*
X3619Y4582D02*
D03*
X3429D02*
D03*
X4128Y4775D02*
D03*
X4318D02*
D03*
X4128Y5042D02*
D03*
X4318D02*
D03*
X4254Y3810D02*
D03*
X4064D02*
D03*
D18*
X3920Y4042D02*
D03*
Y4169D02*
D03*
Y4296D02*
D03*
Y4423D02*
D03*
X4462D02*
D03*
Y4296D02*
D03*
Y4169D02*
D03*
Y4042D02*
D03*
D19*
X3899Y4839D02*
D03*
Y5069D02*
D03*
D20*
X3696Y4839D02*
D03*
Y5069D02*
D03*
M02*
